<svg id="Capa_1" enable-background="new 0 0 512 512" height="512" viewBox="0 0 512 512" width="512" xmlns="http://www.w3.org/2000/svg"><g><path d="m437.02 74.98c-48.353-48.351-112.64-74.98-181.02-74.98s-132.667 26.629-181.02 74.98c-48.351 48.353-74.98 112.64-74.98 181.02s26.629 132.667 74.98 181.02c48.353 48.351 112.64 74.98 181.02 74.98s132.667-26.629 181.02-74.98c48.351-48.353 74.98-112.64 74.98-181.02s-26.629-132.667-74.98-181.02zm-181.02 407.02c-124.617 0-226-101.383-226-226 0-73.737 35.501-139.333 90.303-180.611v3.209c0 41.969 15.311 82.397 43.112 113.838 17.267 19.527 28.694 43.254 33.295 68.563h-71.71c-24.813 0-45 20.187-45 45s20.187 45 45 45h33.158c10.087 36.143 43.188 62 81.842 62h38c35.625 0 69.234-13.754 94.634-38.728 23.363-22.971 37.36-53.04 39.928-85.411 17.117-12.07 27.438-31.616 27.438-52.86 0-19.398-8.567-37.635-23.506-50.034-14.933-12.395-34.587-17.428-53.932-13.801-13.401 2.512-25.263 9.055-34.31 18.375-5.369-14.305-17.782-25.682-33.399-28.707-12.271-2.377-24.623.298-34.782 7.53-9.987 7.11-16.709 18.142-18.445 30.27-3.087 21.61-1.78 42.164 3.877 61.367h-18.398c-4.875-32.67-19.082-63.403-41.217-88.437-22.948-25.951-35.585-59.322-35.585-93.965v-22.306c31.56-16.771 67.535-26.292 105.697-26.292 124.617 0 226 101.383 226 226s-101.383 226-226 226zm-42-170c8.284 0 15-6.716 15-15v-6h38.459c5.194 0 10.019-2.688 12.753-7.104 2.734-4.417 2.989-9.934.674-14.583-9.75-19.58-12.967-41.597-9.562-65.435.586-4.093 2.769-7.672 6.146-10.076 3.402-2.422 7.547-3.32 11.678-2.517 7.258 1.405 12.907 9.498 11.851 16.979-5.906 41.84 17.151 66.495 31.42 77.467 6.372 4.901 15.472 3.907 20.636-2.251l.452-.54c5.219-6.229 4.529-15.481-1.557-20.867-9.716-8.598-13.79-20.811-11.179-33.508 2.788-13.559 13.766-24.374 27.317-26.914 10.696-2.003 21.083.623 29.246 7.398 8.049 6.682 12.666 16.506 12.666 26.951 0 13.007-7.253 24.846-18.93 30.897-4.888 2.533-7.996 7.541-8.096 13.046-1.029 56.826-48.12 103.057-104.974 103.057h-38c-27.982 0-51.467-20.935-54.627-48.696-.863-7.579-7.276-13.304-14.904-13.304h-45.469c-8.271 0-15-6.729-15-15s6.729-15 15-15h74v6c0 8.284 6.716 15 15 15z"/></g></svg>