<?xml version="1.0" encoding="iso-8859-1"?>
<!-- Generator: Adobe Illustrator 19.0.0, SVG Export Plug-In . SVG Version: 6.00 Build 0)  -->
<svg version="1.1" id="Layer_1" xmlns="http://www.w3.org/2000/svg" xmlns:xlink="http://www.w3.org/1999/xlink" x="0px" y="0px"
	 viewBox="0 0 511.999 511.999" style="enable-background:new 0 0 511.999 511.999;" xml:space="preserve">
<g>
	<g>
		<path d="M427.453,189.35c0-33.228-3.504-62.815-10.416-87.943c-8.441-30.681-22.028-54.813-40.384-71.73
			c-3.402-3.135-8.702-2.919-11.839,0.484c-3.136,3.403-2.918,8.704,0.485,11.839c37.522,34.576,45.399,99.213,45.399,147.348
			c0,87.495-39.251,109.263-63.609,114.327c12.104-19.736,18.106-42.641,17.107-66.108c-0.69-16.383-2.022-30.171-4.067-42.156
			c-4.938-28.91-16.741-68.556-62.052-79.02c-44.518-10.274-72.566-46.2-81.135-58.657c6.141-23.931,27.871-40.977,52.901-40.977
			h27.951c2.413,0,4.816,0.134,7.145,0.399c0.141,0.021,0.281,0.038,0.424,0.051l0.161,0.016c0.115,0.011,0.229,0.02,0.343,0.026
			c16.13,1.358,30.58,5.624,42.949,12.678c4.021,2.291,9.137,0.891,11.428-3.128c2.293-4.019,0.893-9.136-3.127-11.428
			c-14.518-8.279-31.306-13.266-49.908-14.824c-0.096-0.011-0.189-0.02-0.276-0.027C303.943,0.174,300.871,0,297.792,0h-27.951
			c-34.063,0-63.464,24.17-70.027,57.491c-0.017,0.071-0.032,0.144-0.047,0.217c-0.004,0.025-0.011,0.048-0.016,0.073
			c-0.865,4.434-1.305,9.015-1.305,13.616v72.714c0,47.069,36.129,85.841,82.109,90.085v7.408c-4.404,1.768-10.75,4.62-17.132,8.545
			c-10.794,6.636-17.145,13.544-20.762,19.955l-23.494-23.494c-30.927-30.925-81.245-30.925-112.169,0
			c-8.914,8.914-15.643,19.932-19.459,31.864c-1.41,4.407,1.021,9.124,5.427,10.532c4.409,1.41,9.124-1.021,10.533-5.428
			c3.049-9.535,8.213-17.986,15.347-25.12c10.898-10.899,24.852-16.912,39.128-18.072c-9.511,9.333-15.33,22.3-15.33,36.311
			c0,28.028,22.802,50.829,50.829,50.829c22.396,0,41.441-14.566,48.196-34.717l41.481,41.481
			c11.816,11.816,18.322,27.526,18.322,44.236c0,16.71-6.506,32.42-18.323,44.236c-11.815,11.816-27.525,18.323-44.236,18.323
			c-16.71,0-32.42-6.507-44.236-18.323l-75.833-75.833c-9.549-9.549-15.648-21.632-17.634-34.942
			c-0.684-4.578-4.962-7.727-9.523-7.05c-4.577,0.684-7.733,4.948-7.05,9.524c2.353,15.756,9.244,30.15,19.991,41.842l0.738,28.801
			c0.18,7.003,3.421,13.531,8.89,17.908c4.246,3.398,9.463,5.202,14.8,5.202c1.537,0,3.083-0.15,4.619-0.454l18.619-3.683
			l1.638,1.638c3.394,12.138,20.815,66.571,66.476,92.602c15.993,9.117,33.572,13.683,52.556,13.683
			c13.181,0,27.041-2.202,41.517-6.609c25.049-7.625,45.552-21.95,60.94-42.578c12.644-16.95,21.881-38.25,27.455-63.309
			c1.004-4.517-1.842-8.993-6.36-9.998c-4.517-1.003-8.993,1.843-9.997,6.36c-11.094,49.879-36.972,81.335-76.919,93.495
			c-23.513,7.157-44.962,7.728-64.01,1.757v-33.571c18.653-1.545,35.987-9.529,49.378-22.906c0.005-0.004,0.01-0.008,0.015-0.013
			c0.003-0.002,0.011-0.011,0.015-0.014l0.001-0.001c0,0,0.001-0.001,0.002-0.001c1.867-1.86,41.893-42.273,44.397-89.536
			c0.246-4.622-3.302-8.565-7.924-8.81c-4.586-0.241-8.565,3.301-8.81,7.923c-0.442,8.346-2.344,16.542-5.084,24.311
			c-2.181-17.386-9.994-33.467-22.583-46.056l-39.562-39.562c2.269-9.799,14.805-17.999,25.116-22.984v3.183
			c0,4.004,2.834,7.449,6.764,8.221c2.806,0.552,16.76,3.128,32.306,3.128c7.857,0,16.112-0.669,23.546-2.579
			c-4.004,13.118-10.689,25.39-19.827,36.047c-2.025,2.361-2.575,5.648-1.429,8.539c1.144,2.891,3.796,4.91,6.888,5.245
			c0.299,0.032,1.926,0.193,4.598,0.193c9.27,0,33.145-1.968,54.593-20.202c0.823-0.699,1.631-1.42,2.43-2.153
			c1.743,16.327,3.318,42.159,0.385,69.755c-0.489,4.601,2.845,8.728,7.447,9.216c0.302,0.032,0.599,0.047,0.895,0.047
			c4.229,0,7.865-3.193,8.322-7.494c4.362-41.058-0.604-77.64-2.41-88.845c4.172-6.337,7.784-13.359,10.798-21.044
			C423.553,241.538,427.453,217.379,427.453,189.35z M193.474,310.769c-18.787,0-34.072-15.285-34.072-34.072
			c0-15.319,10.362-28.781,24.933-32.826c3.456,1.242,6.822,2.797,10.058,4.667c-1.904,2.146-2.663,5.207-1.81,8.013
			c1.06,3.487,4.371,5.948,8.02,5.948c2.844,0,5.451-1.491,6.975-3.781l19.911,19.911
			C226.483,296.519,211.613,310.769,193.474,310.769z M130.425,391.322c-2.762,0.547-4.756-0.638-5.698-1.394
			c-0.944-0.754-2.537-2.441-2.61-5.255l-0.284-11.057l16.201,16.201L130.425,391.322z M228.835,483.832
			c-0.014-0.009-0.029-0.017-0.042-0.023c-20.373-11.585-34.51-30.309-43.849-47.183c12.241,11.391,27.479,18.494,43.892,20.564
			V483.832z M215.203,144.11V82.65c10.293,11.781,25.669,26.382,45.805,37.322v50.386c0,4.627,3.75,8.378,8.378,8.378h18.08
			c4.628,0,8.378-3.751,8.378-8.378s-3.75-8.378-8.378-8.378h-9.701v-34.314c5.267,2,10.772,3.723,16.541,5.054
			c26.508,6.122,41.597,25.189,48.593,61.607c-13.944,14.987-33.396,23.513-53.965,23.513
			C248.278,217.84,215.203,184.765,215.203,144.11z M297.312,255.998v-21.794c17.834-1.648,34.656-8.52,48.473-19.699
			c0.744,7.229,1.3,15.096,1.667,23.775c0.202,4.749,0.068,9.472-0.39,14.138C337.521,258.721,314.714,258.501,297.312,255.998z"/>
	</g>
</g>
<g>
	<g>
		<path d="M247.8,124.036l-12.288-1.117c-4.6-0.424-8.683,2.977-9.101,7.585c-0.419,4.608,2.977,8.683,7.585,9.102l12.288,1.117
			c0.257,0.023,0.514,0.035,0.769,0.035c4.284,0,7.938-3.27,8.334-7.62C255.804,128.53,252.408,124.455,247.8,124.036z"/>
	</g>
</g>
<g>
	<g>
		<path d="M182.734,271.616c-2.858-1.806-6.607-1.676-9.356,0.276c-3.07,2.18-4.293,6.313-2.934,9.818
			c1.239,3.196,4.386,5.364,7.817,5.364c3.795,0,7.2-2.667,8.123-6.346C187.251,277.266,185.748,273.523,182.734,271.616z"/>
	</g>
</g>
<g>
</g>
<g>
</g>
<g>
</g>
<g>
</g>
<g>
</g>
<g>
</g>
<g>
</g>
<g>
</g>
<g>
</g>
<g>
</g>
<g>
</g>
<g>
</g>
<g>
</g>
<g>
</g>
<g>
</g>
</svg>
