<svg height="512" viewBox="0 0 60 60" width="512" xmlns="http://www.w3.org/2000/svg"><g id="Page-1" fill="none" fill-rule="evenodd"><g id="023---Baby" fill="rgb(0,0,0)" fill-rule="nonzero"><path id="Shape" d="m30 0c-16.5685425 0-30 13.4314575-30 30s13.4314575 30 30 30 30-13.4314575 30-30c-.018737-16.5607751-13.4392249-29.98126296-30-30zm0 58c-15.463973 0-28-12.536027-28-28s12.536027-28 28-28 28 12.536027 28 28c-.0176345 15.4566626-12.5433374 27.9823655-28 28z"/><path id="Shape" d="m56 27.708c-.0016939-1.5801525-.3188952-3.1440604-.933-4.6-3.3960346-12.3701914-15.3083035-20.41343518-28.0513412-18.94045367-12.7430378 1.47298152-22.50623971 12.02171647-22.9906588 24.84045367-.006.126-.027.245-.027.373 0 .056.012.107.013.163 0 .151-.011.3-.011.452.02421559 14.3500093 11.6499946 25.9775769 26 26.004 14.3525501-.016532 25.983468-11.6474499 26-26 0-.4453333-.0113333-.8876667-.034-1.327.01-.122.017-.232.022-.313.012-.221.012-.431.012-.652zm-5.322-9.87c-3.0191057-1.9594708-6.7880338-2.3727175-10.16-1.114-2.9039768 1.0883256-5.2441631 3.3051544-6.488 6.146-.7610839 1.7074955-1.1062014 3.5711982-1.007 5.438-1.37781-.3905769-2.8355994-.4012883-4.219-.031-.472207.1444285-.9131552.376096-1.3.683-.078-.049-.156-.1-.236-.145 2.41-1.643 3.732-3.657 3.732-5.815.0204635-2.0699808-.9739336-4.018805-2.662-5.217-1.553758-1.0829711-2.4378915-2.891701-2.338-4.783-.0838474-2.9511894 1.5557232-5.68185512 4.2-6.995 8.4300294.075695 16.2027627 4.5670884 20.478 11.833zm-24.088-11.592c-1.7202053 1.8217016-2.6510978 4.2492106-2.59 6.754-.0976965 2.4582008 1.0251115 4.8059923 3 6.273 1.16 1.038 2 1.788 2 3.727 0 2.457-2.672 4.2-4.343 5.052-.218-.019-.43-.052-.657-.052h-11.5c-.025-.093-.05-.193-.072-.28-.303-1.207-.928-3.72-4.378-3.72-.4737975.0066425-.94026509.1179664-1.366.326 2.3338406-9.5183386 10.2076893-16.6699103 19.906-18.08zm-16.59 36.989c-1.74224867-2.6094419-2.94516085-5.5409029-3.538-8.622 1.33259304.9595676 2.94699434 1.4476178 4.588 1.387 1.5680026.0427132 3.1324173.1725804 4.686.389-1.1994895.8906484-2.3355653 1.8636639-3.4 2.912-1.0219785 1.1506857-1.8148423 2.4859281-2.336 3.934zm1.465 1.965c.4062391-1.6584694 1.1937752-3.1993011 2.3-4.5 1.5860152-1.5297865 3.3051415-2.915261 5.137-4.14 1.473-1.018 2.605-1.7 2.617-1.706.3132279-.1806127.5045637-.516242.5004101-.8777878-.0041537-.3615459-.2031497-.6926908-.5204443-.8660598-.3172946-.1733689-.7034632-.1619565-1.0099658.0298476-.044.026-1.036.624-2.395 1.551-2.3318891-.3723873-4.6841991-.6031435-7.044-.691-1.45837457.1007825-2.88878188-.4358482-3.921-1.471-.7141156-.8282313-1.11039538-1.8834414-1.118-2.977 0-.224.007-.447.017-.669.149-1.627.995-2.883 2.022-2.883 1.759 0 2.094.833 2.437 2.206.168.67.449 1.794 1.563 1.794h11.95c.814929-.0177713 1.6199834.1809905 2.333.576-.0823056.209494-.1491512.4247368-.2.644-.41 1.8.148 4.034 1.575 6.532-.313.866-.644 1.611-.73 1.783-.878 1.665-3.578 3.565-6.435 4.516-.3394023.1130746-.5926984.3986287-.6644741.749097s.0488734.7126063.3165.95c.2676266.2373938.6415718.3139776.9809741.200903 3.4-1.134 6.443-3.338 7.578-5.5.058-.115.16-.339.286-.632 1.6361263 2.2177845 3.4878257 4.2681196 5.528 6.121.406327.3638274 1.029249.3349596 1.4001854-.064888.3709364-.3998477.3530585-1.0231819-.0401854-1.401112-6.553-6.079-8.35-10.6-7.848-12.807.1196384-.7054997.6325875-1.2802358 1.32-1.479 3.172-.98 7.7 2.117 7.742 2.148.4534258.3153546 1.0766454.2034258 1.392-.25s.2034258-1.0766454-.25-1.392c-1.0004798-.6663975-2.0635003-1.2337437-3.174-1.694-.2514002-1.8076419.0073287-3.6495703.747-5.318 1.0287171-2.3482411 2.9628448-4.1810281 5.363-5.082 2.3414904-.884821 4.9413216-.7849108 7.208.277 2.1370875.99923 3.8300012 2.7523251 4.754 4.923.4268275 1.5911249.687884 3.2221419.779 4.867-.0960389 1.6695838-.3887287 3.3220058-.872 4.923-.878 1.933-3.077 3.79-6.536 5.519-.4004321.1989774-.7513211.4849502-1.027.837-.5098648-.7949733-1.2292883-1.4337687-2.079-1.846l-8-4c-.4942949-.2468713-1.0951287-.0462949-1.342.448s-.0462949 1.0951287.448 1.342l8 4c.9.447 1.907 1.258 1.827 3.546-.215537 1.4270445-.6453854 2.8133478-1.275 4.112-1.0305723 1.619927-2.2361507 3.1216183-3.595 4.478-9.8229534 4.252075-21.2748979 1.4647342-28.045-6.826zm33.061 3.885c.14-.223.268-.439.369-.641.7634804-1.5894366 1.2775105-3.2870178 1.524-5.033.284-1.6.446-2.228 1.028-2.519 2.0013056-.9450149 3.8414703-2.1990131 5.453-3.716-1.4958881 4.7393375-4.4208496 8.9000899-8.374 11.912z"/><path id="Shape" d="m47.415 34c1.2127486-.0006627 2.3058146-.7314283 2.7699558-1.8518446.4641412-1.1204162.2080535-2.4100793-.6489558-3.2681554-.2510745-.2599566-.6228779-.3642126-.9725073-.2726972-.3496295.0915155-.6226744.3645604-.7141899.7141899-.0915154.3496294.0127406.7214328.2726972.9725073.2525868.2527654.3511379.6210837.25853.966213s-.3623054.6146361-.7075.707c-.3451947.0923638-.7134432-.0064476-.96603-.259213-.3923789-.3789722-1.0160848-.3735524-1.4018186.0121814s-.3911536 1.0094397-.0121814 1.4018186c.5623248.5633679 1.3260159.8793532 2.122.878z"/></g></g></svg>